<?xml version="1.0" encoding="UTF-8" standalone="no"?>
<svg
   xmlns:dc="http://purl.org/dc/elements/1.1/"
   xmlns:cc="http://creativecommons.org/ns#"
   xmlns:rdf="http://www.w3.org/1999/02/22-rdf-syntax-ns#"
   xmlns:svg="http://www.w3.org/2000/svg"
   xmlns="http://www.w3.org/2000/svg"
   xmlns:sodipodi="http://sodipodi.sourceforge.net/DTD/sodipodi-0.dtd"
   xmlns:inkscape="http://www.inkscape.org/namespaces/inkscape"
   width="1024"
   height="1024"
   viewBox="0 0 1024 1024"
   version="1.1"
   id="svg930"
   sodipodi:docname="icon.svg"
   inkscape:version="0.92.3 (2405546, 2018-03-11)">
  <metadata
     id="metadata936">
    <rdf:RDF>
      <cc:Work
         rdf:about="">
        <dc:format>image/svg+xml</dc:format>
        <dc:type
           rdf:resource="http://purl.org/dc/dcmitype/StillImage" />
        <dc:title />
      </cc:Work>
    </rdf:RDF>
  </metadata>
  <defs
     id="defs934" />
  <sodipodi:namedview
     pagecolor="#ffffff"
     bordercolor="#666666"
     borderopacity="1"
     objecttolerance="10"
     gridtolerance="10"
     guidetolerance="10"
     inkscape:pageopacity="0"
     inkscape:pageshadow="2"
     inkscape:window-width="3840"
     inkscape:window-height="2035"
     id="namedview932"
     showgrid="false"
     inkscape:zoom="1.231222"
     inkscape:cx="24.933125"
     inkscape:cy="619.545"
     inkscape:window-x="3840"
     inkscape:window-y="0"
     inkscape:window-maximized="1"
     inkscape:current-layer="svg930" />
  <path
     style="fill:#727988;fill-opacity:1"
     d="M 511.87109 0.83398438 C 212.84759 0.83398438 196.82978 0.9239674 186.37109 2.6484375 C 161.56648 6.7383275 143.86052 12.319083 122.37109 22.820312 C 98.963907 34.258682 80.936668 47.156381 62.861328 65.394531 C 45.630698 82.780361 32.308428 101.8296 21.292969 124.83398 C 12.015707 144.20836 6.2518209 162.60869 2.1855469 185.83398 C 0.54834188 195.18518 0.412136 215.84951 0.09375 504.33398 C -0.149246 724.5084 0.070291125 816.41281 0.86132812 825.33398 C 6.6798191 890.95389 42.129851 950.89143 96.806641 987.55273 C 124.39667 1006.0522 158.76017 1018.7044 192.58008 1022.8184 C 201.30514 1023.8793 263.23323 1024.1005 515.87109 1023.9648 C 812.31483 1023.8055 828.91109 1023.703 838.85352 1021.9883 C 881.33916 1014.661 917.43823 997.8143 948.85352 970.6543 C 970.60752 951.8469 988.3568 928.6835 1001.4375 902.0332 C 1013.4831 877.4922 1020.4751 852.48809 1022.8828 825.33398 C 1023.6737 816.41281 1023.8934 724.5084 1023.6504 504.33398 C 1023.2749 164.03813 1023.7937 191.68121 1017.293 165.83398 C 1003.8759 112.4866 971.73206 67.144042 925.37109 36.164062 C 914.37833 28.818332 889.57227 16.567604 877.37109 12.458984 C 865.48213 8.455504 850.89727 4.8786975 837.37109 2.6484375 C 826.9124 0.9239174 810.89459 0.83398438 511.87109 0.83398438 z "
     id="path938" />
  <path
     inkscape:connector-curvature="0"
     style="fill:#ffda00;fill-opacity:1;stroke:none;stroke-width:4.97200441;stroke-linecap:round;stroke-linejoin:round;stroke-miterlimit:4;stroke-dasharray:none;stroke-opacity:1;paint-order:markers fill stroke"
     d="m 515.57051,168.62273 c -8.7619,0.0949 -18.0018,0.61285 -24.8975,1.5241 -23.4859,3.10363 -39.1611,10.35167 -53.861,24.90716 -12.3625,12.24097 -20.1087,23.66503 -40.5433,59.79588 -44.4505,78.59413 -62.2563,110.08659 -80.014,141.51694 -19.0609,33.73708 -35.3817,62.52388 -54.809,96.67001 -5.6134,9.86632 -22.6609,39.91375 -37.8843,66.77207 -32.766,57.8083 -92.5534,162.61701 -104.0355,182.37746 -11.8522,20.39742 -16.0794,33.06488 -16.0254,48.02747 0.08,22.14992 14.501,44.05926 35.86,54.47809 5.2072,2.54008 12.1585,5.32528 15.4473,6.18981 11.5409,3.0338 44.9009,3.47998 237.6886,3.17666 172.2215,-0.27098 191.3513,-0.45754 195.9951,-1.90755 8.6714,-2.70763 14.4495,-6.07343 20.2589,-11.79957 13.9004,-13.70117 20.0718,-37.72036 17.0298,-66.27378 -3.4331,-32.22407 -11.7944,-46.98764 -30.4761,-53.81434 -4.6496,-1.69909 -11.8161,-1.87342 -107.1342,-2.59466 -141.2353,-1.06868 -143.1495,-1.10954 -147.9949,-3.2292 -10.1184,-4.42646 -16.4089,-11.69886 -18.4818,-21.36458 -1.9356,-9.02522 -0.4161,-12.94738 16.8955,-43.57197 15.3856,-27.21759 28.6367,-50.7953 48.4479,-86.20574 5.3665,-9.59226 14.785,-26.40985 20.9305,-37.37243 6.1454,-10.96258 25.1906,-45.04623 42.3223,-75.74146 45.3275,-81.21423 49.8707,-89.0407 54.8226,-94.42766 3.6096,-3.92665 5.2866,-4.98252 8.5918,-5.41706 3.6975,-0.48609 4.5173,-0.16983 8.2258,3.18054 5.5439,5.00855 8.2454,9.54048 42.7661,71.74923 16.425,29.59897 39.624,71.30659 51.5526,92.68363 11.9285,21.37702 25.1553,45.14589 29.3938,52.8197 6.4768,11.72638 38.9561,70.03973 55.7861,100.15811 16.8742,30.19746 55.757,99.94694 70.0013,125.57135 9.2933,16.71794 19.0932,33.28117 21.7772,36.80601 8.1039,10.64249 17.4578,17.24302 29.0882,20.52564 6.9581,1.96388 21.8129,1.24816 31.6264,-1.52215 9.0931,-2.56695 25.5396,-10.2769 33.6119,-15.75871 19.8677,-13.49189 31.6102,-32.60534 32.9188,-53.58077 1.0133,-16.23995 -1.9506,-23.70102 -28.8701,-72.67575 -23.0427,-41.92141 -78.0901,-140.27973 -100.9543,-180.38426 -13.0669,-22.91986 -105.919,-186.22233 -116.164,-204.3026 -33.3972,-58.939 -56.2057,-98.64826 -60.8567,-105.95279 -17.2269,-27.05525 -44.6453,-45.09914 -76.0003,-50.01676 -4.9894,-0.78251 -13.2743,-1.11097 -22.0361,-1.01607 z"
     id="rect942-3" />
</svg>
